<svg xmlns="http://www.w3.org/2000/svg" viewBox="0 0 24 24" fill="currentColor">
  <path d="M17.472 14.382c-.297-.149-1.758-.867-2.03-.967-.273-.099-.471-.148-.67.15-.197.297-.767.966-.94 1.164-.173.199-.347.223-.644.075-.297-.15-1.255-.463-2.39-1.475-.883-.788-1.48-1.761-1.653-2.059-.173-.297-.018-.458.13-.606.134-.133.298-.347.446-.52.149-.174.198-.298.298-.497.099-.198.05-.371-.025-.52-.075-.149-.669-1.612-.916-2.207-.242-.579-.487-.5-.67-.51-.173-.008-.371-.01-.57-.01-.198 0-.52.074-.792.372-.272.297-1.04 1.016-1.04 2.479 0 1.462 1.065 2.875 1.213 3.074.149.198 2.096 3.2 5.076 4.487.709.306 1.262.489 1.694.625.712.227 1.36.195 1.871.118.571-.085 1.758-.719 2.006-1.413.248-.694.248-1.289.173-1.413-.074-.124-.272-.198-.57-.347m-5.421-7.403h-.004a9.87 9.87 0 00-4.968 1.495c-1.529.92-2.79 2.213-3.643 3.7C2.071 12.38 1.75 14.156 1.75 16c0 .126.002.252.007.377 0 5.195 4.23 9.426 9.426 9.426 1.844 0 3.62-.32 5.31-.927 1.487-.853 2.78-2.114 3.7-3.643 1.496-2.548 2.419-5.505 2.419-8.756 0-.126-.002-.252-.007-.377 0-5.195-4.23-9.426-9.426-9.426m0-1.75C18.627 5.232 24 10.605 24 17.232c0 6.627-5.373 12-12 12S0 23.859 0 17.232 5.373 5.232 12 5.232z"/>
</svg>
